<?xml version="1.0" standalone="no"?><!DOCTYPE svg PUBLIC "-//W3C//DTD SVG 1.1//EN" "http://www.w3.org/Graphics/SVG/1.1/DTD/svg11.dtd"><svg t="1701107835558" class="icon" viewBox="0 0 1024 1024" version="1.1" xmlns="http://www.w3.org/2000/svg" p-id="1540" xmlns:xlink="http://www.w3.org/1999/xlink" width="200" height="200"><path d="M699.733333 665.6h-375.466666c-10.24 0-17.066667-6.826667-17.066667-17.066667 0-112.64 98.986667-221.866667 204.8-221.866666s204.8 109.226667 204.8 221.866666c0 10.24-6.826667 17.066667-17.066667 17.066667z m-358.4-34.133333h341.333334c-10.24-88.746667-88.746667-170.666667-170.666667-170.666667s-160.426667 81.92-170.666667 170.666667z" fill="#0477d8" p-id="1541"></path><path d="M512 460.8c-58.026667 0-102.4-44.373333-102.4-102.4s44.373333-102.4 102.4-102.4 102.4 44.373333 102.4 102.4-44.373333 102.4-102.4 102.4z m0-170.666667c-37.546667 0-68.266667 30.72-68.266667 68.266667s30.72 68.266667 68.266667 68.266667 68.266667-30.72 68.266667-68.266667-30.72-68.266667-68.266667-68.266667zM375.466667 341.333333c-3.413333 0-10.24 0-13.653334-3.413333l-34.133333-34.133333c-6.826667-6.826667-6.826667-17.066667 0-23.893334s17.066667-6.826667 23.893333 0l34.133334 34.133334c6.826667 6.826667 6.826667 17.066667 0 23.893333 0 3.413333-6.826667 3.413333-10.24 3.413333zM290.133333 529.066667h-68.266666c-10.24 0-17.066667-6.826667-17.066667-17.066667s6.826667-17.066667 17.066667-17.066667h68.266666c10.24 0 17.066667 6.826667 17.066667 17.066667s-6.826667 17.066667-17.066667 17.066667zM341.333333 750.933333c-3.413333 0-10.24 0-13.653333-3.413333-6.826667-6.826667-6.826667-17.066667 0-23.893333l34.133333-34.133334c6.826667-6.826667 17.066667-6.826667 23.893334 0s6.826667 17.066667 0 23.893334l-34.133334 34.133333c0 3.413333-6.826667 3.413333-10.24 3.413333z" fill="#0477d8" p-id="1542"></path><path d="M256 324.266667C191.146667 324.266667 136.533333 269.653333 136.533333 204.8s54.613333-119.466667 119.466667-119.466667S375.466667 139.946667 375.466667 204.8 320.853333 324.266667 256 324.266667z m0-204.8C208.213333 119.466667 170.666667 157.013333 170.666667 204.8s37.546667 85.333333 85.333333 85.333333S341.333333 252.586667 341.333333 204.8 303.786667 119.466667 256 119.466667zM256 938.666667C191.146667 938.666667 136.533333 884.053333 136.533333 819.2s54.613333-119.466667 119.466667-119.466667S375.466667 754.346667 375.466667 819.2s-54.613333 119.466667-119.466667 119.466667z m0-204.8C208.213333 733.866667 170.666667 771.413333 170.666667 819.2s37.546667 85.333333 85.333333 85.333333S341.333333 866.986667 341.333333 819.2s-37.546667-85.333333-85.333333-85.333333zM119.466667 631.466667C54.613333 631.466667 0 576.853333 0 512s54.613333-119.466667 119.466667-119.466667S238.933333 447.146667 238.933333 512s-54.613333 119.466667-119.466666 119.466667z m0-204.8C71.68 426.666667 34.133333 464.213333 34.133333 512s37.546667 85.333333 85.333334 85.333333S204.8 559.786667 204.8 512s-37.546667-85.333333-85.333333-85.333333zM648.533333 341.333333c-3.413333 0-10.24 0-13.653333-3.413333-6.826667-6.826667-6.826667-17.066667 0-23.893333l34.133333-34.133334c6.826667-6.826667 17.066667-6.826667 23.893334 0s6.826667 17.066667 0 23.893334l-34.133334 34.133333c0 3.413333-6.826667 3.413333-10.24 3.413333zM802.133333 529.066667h-68.266666c-10.24 0-17.066667-6.826667-17.066667-17.066667s6.826667-17.066667 17.066667-17.066667h68.266666c10.24 0 17.066667 6.826667 17.066667 17.066667s-6.826667 17.066667-17.066667 17.066667zM682.666667 750.933333c-3.413333 0-10.24 0-13.653334-3.413333l-34.133333-34.133333c-6.826667-6.826667-6.826667-17.066667 0-23.893334s17.066667-6.826667 23.893333 0l34.133334 34.133334c6.826667 6.826667 6.826667 17.066667 0 23.893333 0 3.413333-6.826667 3.413333-10.24 3.413333z" fill="#0477d8" p-id="1543"></path><path d="M768 324.266667C703.146667 324.266667 648.533333 269.653333 648.533333 204.8s54.613333-119.466667 119.466667-119.466667S887.466667 139.946667 887.466667 204.8s-54.613333 119.466667-119.466667 119.466667z m0-204.8C720.213333 119.466667 682.666667 157.013333 682.666667 204.8s37.546667 85.333333 85.333333 85.333333S853.333333 252.586667 853.333333 204.8s-37.546667-85.333333-85.333333-85.333333zM768 938.666667c-64.853333 0-119.466667-54.613333-119.466667-119.466667s54.613333-119.466667 119.466667-119.466667S887.466667 754.346667 887.466667 819.2s-54.613333 119.466667-119.466667 119.466667z m0-204.8c-47.786667 0-85.333333 37.546667-85.333333 85.333333s37.546667 85.333333 85.333333 85.333333S853.333333 866.986667 853.333333 819.2s-37.546667-85.333333-85.333333-85.333333zM904.533333 631.466667c-64.853333 0-119.466667-54.613333-119.466666-119.466667s54.613333-119.466667 119.466666-119.466667S1024 447.146667 1024 512s-54.613333 119.466667-119.466667 119.466667z m0-204.8c-47.786667 0-85.333333 37.546667-85.333333 85.333333s37.546667 85.333333 85.333333 85.333333S989.866667 559.786667 989.866667 512s-37.546667-85.333333-85.333334-85.333333z" fill="#0477d8" p-id="1544"></path></svg>